<svg width="16" height="16" viewBox="0 0 16 16" fill="none" xmlns="http://www.w3.org/2000/svg">
<path d="M13.0002 13.3333H4.3335C4.06683 13.3333 3.8335 13.2333 3.6335 13.0333C3.4335 12.8333 3.3335 12.6 3.3335 12.3333V1.66663C3.3335 1.39996 3.4335 1.16663 3.6335 0.966626C3.8335 0.766626 4.06683 0.666626 4.3335 0.666626H9.71683C9.85016 0.666626 9.98072 0.694404 10.1085 0.749959C10.2363 0.805515 10.3446 0.877737 10.4335 0.966626L13.7002 4.23329C13.7891 4.32218 13.8613 4.43051 13.9168 4.55829C13.9724 4.68607 14.0002 4.81663 14.0002 4.94996V12.3333C14.0002 12.6 13.9002 12.8333 13.7002 13.0333C13.5002 13.2333 13.2668 13.3333 13.0002 13.3333ZM9.6335 1.66663H4.3335V12.3333H13.0002V4.96663H10.1335C9.98905 4.96663 9.86961 4.9194 9.77516 4.82496C9.68072 4.73051 9.6335 4.61107 9.6335 4.46663V1.66663ZM2.3335 15.3333C2.06683 15.3333 1.8335 15.2333 1.6335 15.0333C1.4335 14.8333 1.3335 14.6 1.3335 14.3333V4.51663C1.3335 4.37218 1.38072 4.25274 1.47516 4.15829C1.56961 4.06385 1.68905 4.01663 1.8335 4.01663C1.97794 4.01663 2.09738 4.06385 2.19183 4.15829C2.28627 4.25274 2.3335 4.37218 2.3335 4.51663V14.3333H10.1335C10.2779 14.3333 10.3974 14.3805 10.4918 14.475C10.5863 14.5694 10.6335 14.6888 10.6335 14.8333C10.6335 14.9777 10.5863 15.0972 10.4918 15.1916C10.3974 15.2861 10.2779 15.3333 10.1335 15.3333H2.3335ZM4.3335 1.66663V4.46663C4.3335 4.61107 4.3335 4.73051 4.3335 4.82496C4.3335 4.9194 4.3335 4.96663 4.3335 4.96663V1.66663V4.46663C4.3335 4.61107 4.3335 4.73051 4.3335 4.82496C4.3335 4.9194 4.3335 4.96663 4.3335 4.96663V12.3333V1.66663Z" fill="#4D595E"/>
</svg>
