<svg width="16" height="16" viewBox="0 0 16 16" fill="none" xmlns="http://www.w3.org/2000/svg">
<path d="M4.34984 14C4.08317 14 3.84984 13.9 3.64984 13.7C3.44984 13.5 3.34984 13.2667 3.34984 13V3.5H3.1665C3.02206 3.5 2.90262 3.45278 2.80817 3.35833C2.71373 3.26389 2.6665 3.14444 2.6665 3C2.6665 2.85556 2.71373 2.73611 2.80817 2.64167C2.90262 2.54722 3.02206 2.5 3.1665 2.5H5.79984C5.79984 2.35556 5.84706 2.23611 5.9415 2.14167C6.03595 2.04722 6.15539 2 6.29984 2H9.69984C9.84428 2 9.96373 2.04722 10.0582 2.14167C10.1526 2.23611 10.1998 2.35556 10.1998 2.5H12.8332C12.9776 2.5 13.0971 2.54722 13.1915 2.64167C13.2859 2.73611 13.3332 2.85556 13.3332 3C13.3332 3.14444 13.2859 3.26389 13.1915 3.35833C13.0971 3.45278 12.9776 3.5 12.8332 3.5H12.6498V13C12.6498 13.2667 12.5498 13.5 12.3498 13.7C12.1498 13.9 11.9165 14 11.6498 14H4.34984ZM4.34984 3.5V13H11.6498V3.5H4.34984ZM6.1165 11.0667C6.1165 11.2111 6.16373 11.3306 6.25817 11.425C6.35261 11.5194 6.47206 11.5667 6.6165 11.5667C6.76095 11.5667 6.88039 11.5194 6.97484 11.425C7.06928 11.3306 7.1165 11.2111 7.1165 11.0667V5.41667C7.1165 5.27222 7.06928 5.15278 6.97484 5.05833C6.88039 4.96389 6.76095 4.91667 6.6165 4.91667C6.47206 4.91667 6.35261 4.96389 6.25817 5.05833C6.16373 5.15278 6.1165 5.27222 6.1165 5.41667V11.0667ZM8.88317 11.0667C8.88317 11.2111 8.93039 11.3306 9.02484 11.425C9.11928 11.5194 9.23873 11.5667 9.38317 11.5667C9.52761 11.5667 9.64706 11.5194 9.7415 11.425C9.83595 11.3306 9.88317 11.2111 9.88317 11.0667V5.41667C9.88317 5.27222 9.83595 5.15278 9.7415 5.05833C9.64706 4.96389 9.52761 4.91667 9.38317 4.91667C9.23873 4.91667 9.11928 4.96389 9.02484 5.05833C8.93039 5.15278 8.88317 5.27222 8.88317 5.41667V11.0667ZM4.34984 3.5V13V3.5Z" fill="#4D595E"/>
</svg>
