<svg width="20" height="20" viewBox="0 0 20 20" fill="none" xmlns="http://www.w3.org/2000/svg">
<path d="M8.95833 15C8.77778 15 8.62847 14.941 8.51042 14.8229C8.39236 14.7049 8.33333 14.5556 8.33333 14.375C8.33333 14.1944 8.39236 14.0451 8.51042 13.9271C8.62847 13.809 8.77778 13.75 8.95833 13.75H11.0417C11.2222 13.75 11.3715 13.809 11.4896 13.9271C11.6076 14.0451 11.6667 14.1944 11.6667 14.375C11.6667 14.5556 11.6076 14.7049 11.4896 14.8229C11.3715 14.941 11.2222 15 11.0417 15H8.95833ZM3.125 6.25C2.94444 6.25 2.79514 6.19097 2.67708 6.07292C2.55903 5.95486 2.5 5.80556 2.5 5.625C2.5 5.44444 2.55903 5.29514 2.67708 5.17708C2.79514 5.05903 2.94444 5 3.125 5H16.875C17.0556 5 17.2049 5.05903 17.3229 5.17708C17.441 5.29514 17.5 5.44444 17.5 5.625C17.5 5.80556 17.441 5.95486 17.3229 6.07292C17.2049 6.19097 17.0556 6.25 16.875 6.25H3.125ZM5.625 10.625C5.44444 10.625 5.29514 10.566 5.17708 10.4479C5.05903 10.3299 5 10.1806 5 10C5 9.81944 5.05903 9.67014 5.17708 9.55208C5.29514 9.43403 5.44444 9.375 5.625 9.375H14.375C14.5556 9.375 14.7049 9.43403 14.8229 9.55208C14.941 9.67014 15 9.81944 15 10C15 10.1806 14.941 10.3299 14.8229 10.4479C14.7049 10.566 14.5556 10.625 14.375 10.625H5.625Z" fill="#111417"/>
</svg>
