<svg width="14" height="14" viewBox="0 0 14 14" fill="none" xmlns="http://www.w3.org/2000/svg">
<path d="M9.49375 4.03958C9.36736 4.03958 9.26285 4.0809 9.18021 4.16354C9.09757 4.24618 9.05625 4.3507 9.05625 4.47708L9.05625 9.52292C9.05625 9.64931 9.09757 9.75382 9.18021 9.83646C9.26285 9.9191 9.36736 9.96042 9.49375 9.96042C9.62014 9.96042 9.72465 9.9191 9.80729 9.83646C9.88993 9.75382 9.93125 9.64931 9.93125 9.52292L9.93125 4.47708C9.93125 4.3507 9.88993 4.24618 9.80729 4.16354C9.72465 4.0809 9.62014 4.03958 9.49375 4.03958ZM7 6.95625C6.87361 6.95625 6.7691 6.99757 6.68646 7.08021C6.60382 7.16285 6.5625 7.26736 6.5625 7.39375L6.5625 9.52292C6.5625 9.64931 6.60382 9.75382 6.68646 9.83646C6.7691 9.9191 6.87361 9.96042 7 9.96042C7.12639 9.96042 7.2309 9.9191 7.31354 9.83646C7.39618 9.75382 7.4375 9.64931 7.4375 9.52292L7.4375 7.39375C7.4375 7.26736 7.39618 7.16285 7.31354 7.08021C7.2309 6.99757 7.12639 6.95625 7 6.95625ZM4.50625 5.20625C4.37986 5.20625 4.27535 5.24757 4.19271 5.33021C4.11007 5.41285 4.06875 5.51736 4.06875 5.64375L4.06875 9.52292C4.06875 9.64931 4.11007 9.75382 4.19271 9.83646C4.27535 9.9191 4.37986 9.96042 4.50625 9.96042C4.63264 9.96042 4.73715 9.9191 4.81979 9.83646C4.90243 9.75382 4.94375 9.64931 4.94375 9.52292L4.94375 5.64375C4.94375 5.51736 4.90243 5.41285 4.81979 5.33021C4.73715 5.24757 4.63264 5.20625 4.50625 5.20625ZM11.375 1.75C11.6083 1.75 11.8125 1.8375 11.9875 2.0125C12.1625 2.1875 12.25 2.39167 12.25 2.625L12.25 11.375C12.25 11.6083 12.1625 11.8125 11.9875 11.9875C11.8125 12.1625 11.6083 12.25 11.375 12.25L2.625 12.25C2.39167 12.25 2.1875 12.1625 2.0125 11.9875C1.8375 11.8125 1.75 11.6083 1.75 11.375L1.75 2.625C1.75 2.39167 1.8375 2.1875 2.0125 2.0125C2.1875 1.8375 2.39167 1.75 2.625 1.75L11.375 1.75ZM11.375 2.625L2.625 2.625L2.625 11.375L11.375 11.375L11.375 2.625ZM11.375 2.625L11.375 11.375L11.375 2.625Z" fill="white"/>
</svg>
