<svg width="106" height="30" viewBox="0 0 106 30" fill="none" xmlns="http://www.w3.org/2000/svg">
<path d="M99.883 14.3167L105.5 29.187C103.845 28.9506 102.19 28.6544 100.506 28.3876L97.3413 20.1712L94.0901 27.7094C92.4943 27.4426 90.9269 27.3538 89.331 27.1466L95.036 14.1399L89.8616 0.808594H94.6509L97.5474 8.25699L100.652 0.808594H105.499L99.883 14.3167ZM86.0798 0.808594H81.7341V26.5856C83.1531 26.6746 84.6306 26.7332 86.0798 26.9101V0.808594ZM77.9797 26.2896C74.0191 26.0237 70.0573 25.7882 66.0077 25.6984V0.808708H70.4415V21.5011C72.9841 21.5598 75.5259 21.7661 77.9797 21.8843V26.2896ZM61.2771 10.8895V15.3231H55.2174V25.4031H50.8434V0.808594H63.2589V5.24223H55.2183V10.8896H61.278L61.2771 10.8895ZM43.393 5.24223V25.6397C41.9145 25.6397 40.4077 25.6397 38.9585 25.6984V5.24223H34.3764V0.808594H48.0035V5.24223H43.393ZM29.588 15.5587C27.6374 15.5587 25.3312 15.5587 23.6758 15.6486V22.2399C26.2771 22.0621 28.8785 21.8559 31.5091 21.767V26.0237L19.2422 26.9999V0.808594H31.5083V5.24223H23.6757V11.214C25.3907 11.214 28.0214 11.1251 29.5878 11.1251V15.5597L29.588 15.5587ZM5.02169 13.0756V28.5655C3.42682 28.7433 2.00692 28.9504 0.5 29.187V0.808594H4.7275L10.4913 16.9201V0.808594H14.9258V27.3538C13.3593 27.6205 11.7626 27.7094 10.0778 27.945L5.02169 13.0756Z" fill="#9CAEB8"/>
</svg>
