<svg width="106" height="38" viewBox="0 0 106 38" fill="none" xmlns="http://www.w3.org/2000/svg">
<g clip-path="url(#clip0_31568_175721)">
<path d="M34.598 20.2056C34.598 17.2643 33.7227 14.2952 31.6028 12.2562C30.0863 10.7976 28.5654 9.81148 26.1445 8.48446C22.4122 6.43859 17.4553 5.41846 17.4553 5.41846C20.024 4.88426 22.2205 5.39573 22.3114 5.41704C14.8198 1.7501 9.45227 4.3117 9.45227 4.3117L5.84074 1.69043C5.13605 2.93216 5.58643 4.99365 5.85637 5.91856C5.94587 6.2368 5.90041 6.58489 5.7214 6.85767L3.47236 10.3271C3.38286 10.4635 3.32318 10.6312 3.32318 10.813L3.26351 12.9342C2.07861 14.6007 1.46485 16.2374 1.14945 17.5104C0.849672 17.5715 0.595359 17.8599 0.520059 18.2378C0.446181 18.647 0.579731 19.0263 0.8653 19.1926C0.819836 19.6784 0.835464 19.9512 0.835464 19.9512L2.79893 23.1934C3.14275 23.6935 3.77214 23.8909 4.34186 23.648L6.54543 22.7387C6.90488 22.5867 7.12935 22.2386 7.12935 21.8451V19.92C7.12935 19.7083 7.20465 19.5108 7.33962 19.3588C7.74453 18.8899 8.80867 17.9963 11.116 17.9963C14.2331 17.9963 15.0429 14.3137 14.7886 12.7978C14.7886 12.7978 15.9863 16.4051 13.7983 18.3742C12.8549 19.2238 12.7342 20.6772 13.4687 21.7229C14.979 24.0884 15.1097 33.4682 5.02097 33.9825C8.42791 36.4532 12.6177 37.9094 17.1484 37.9094C19.4912 37.9094 22.121 37.307 23.8415 36.8012C27.2101 35.4786 29.0856 33.9825 30.9225 31.9792C33.7455 28.9006 34.1291 25.056 33.4316 21.7542C31.8133 14.0864 21.8625 7.13045 11.9698 5.64578C16.8415 6.3732 25.1626 7.98139 30.833 14.2385C32.4526 16.0256 34.598 20.2056 34.598 20.2056ZM5.16589 13.3732C4.40153 11.6768 6.99438 11.4495 6.99438 11.4495C6.63493 14.1617 5.16589 13.3732 5.16589 13.3732Z" fill="#9CAEB8"/>
<path d="M9.76855 3.51393C11.043 3.09197 11.7277 2.91296 12.8999 2.68422L8.85643 0.0302734C8.46999 0.362727 7.86049 1.85593 8.35917 2.51941L9.76855 3.51393Z" fill="#9CAEB8"/>
</g>
<path d="M44.8211 19.6466C41.667 19.6466 40.09 18.1153 40.09 15.0526V10.7558H38.4406L37.4883 8.17312H40.09V4.88193H43.5412V8.17312H46.8552V10.7558H43.5412V14.9155C43.5412 15.5555 43.6859 16.0354 43.9754 16.3554C44.2802 16.6754 44.7601 16.8354 45.4153 16.8354C45.7337 16.8354 46.0757 16.787 46.3821 16.6969L47.2666 19.0981C46.9467 19.2657 46.5657 19.3952 46.1239 19.4866C45.682 19.5933 45.2477 19.6466 44.8211 19.6466Z" fill="#9CAEB8"/>
<path d="M48.5533 19.3952V4.79297H52.0045V9.70444C52.4007 9.12543 52.9111 8.69118 53.5358 8.40168C54.1606 8.09694 54.8538 7.94457 55.6157 7.94457C58.2517 7.94457 59.5697 9.51398 59.5697 12.6528V19.3952H56.1185V12.8128C56.1185 12.0357 55.9738 11.4796 55.6843 11.1443C55.3948 10.7939 54.9681 10.6187 54.4043 10.6187C53.673 10.6187 53.0863 10.8472 52.6445 11.3043C52.2178 11.7614 52.0045 12.3709 52.0045 13.1328V19.3952H48.5533Z" fill="#9CAEB8"/>
<path d="M67.9743 19.6466C66.6487 19.6466 65.5059 19.4104 64.5459 18.9381C63.6013 18.4505 62.8699 17.7724 62.3518 16.9039C61.849 16.0202 61.5976 14.9841 61.5976 13.7956C61.5976 12.6376 61.8414 11.6243 62.329 10.7558C62.8318 9.87205 63.5098 9.18638 64.3631 8.6988C65.2316 8.19598 66.2296 7.94457 67.3572 7.94457C68.9875 7.94457 70.2827 8.46262 71.2426 9.49874C72.2025 10.5196 72.6825 11.9062 72.6825 13.6584V14.527H64.8888C65.0107 15.4107 65.3307 16.0583 65.8487 16.4697C66.382 16.8658 67.1134 17.0639 68.0428 17.0639C68.6523 17.0639 69.2694 16.9725 69.8941 16.7897C70.5189 16.6068 71.0826 16.3249 71.5855 15.944L72.4997 18.2524C71.9359 18.679 71.2426 19.0219 70.4198 19.2809C69.6123 19.5247 68.7971 19.6466 67.9743 19.6466ZM67.4943 10.2301C66.7629 10.2301 66.1687 10.4511 65.7116 10.8929C65.2697 11.3348 64.9954 11.9519 64.8888 12.7442H69.8256C69.7342 11.0682 68.9571 10.2301 67.4943 10.2301Z" fill="#9CAEB8"/>
<path d="M74.7356 19.3952V8.17312H78.1182V9.79586C78.4534 9.21686 78.9105 8.76736 79.4895 8.44739C80.0838 8.11217 80.7694 7.94457 81.5465 7.94457C82.3389 7.94457 83.0093 8.11979 83.5578 8.47024C84.1216 8.82069 84.5482 9.35399 84.8377 10.0701C85.1882 9.3997 85.691 8.88164 86.3462 8.51595C87.0166 8.13503 87.7556 7.94457 88.5632 7.94457C89.8431 7.94457 90.7954 8.33311 91.4201 9.1102C92.0448 9.87205 92.3572 11.0529 92.3572 12.6528V19.3952H88.906V12.7671C88.906 12.0205 88.7841 11.4796 88.5403 11.1443C88.3118 10.7939 87.9156 10.6187 87.3518 10.6187C86.6966 10.6187 86.1862 10.8472 85.8205 11.3043C85.4548 11.7614 85.272 12.409 85.272 13.247V19.3952H81.8208V12.7671C81.8208 12.0205 81.6989 11.4796 81.4551 11.1443C81.2113 10.7939 80.8152 10.6187 80.2666 10.6187C79.6114 10.6187 79.101 10.8472 78.7353 11.3043C78.3696 11.7614 78.1868 12.409 78.1868 13.247V19.3952H74.7356Z" fill="#9CAEB8"/>
<path d="M100.512 19.6466C99.186 19.6466 98.0433 19.4104 97.0833 18.9381C96.1386 18.4505 95.4073 17.7724 94.8892 16.9039C94.3864 16.0202 94.135 14.9841 94.135 13.7956C94.135 12.6376 94.3788 11.6243 94.8663 10.7558C95.3692 9.87205 96.0472 9.18638 96.9005 8.6988C97.769 8.19598 98.767 7.94457 99.8946 7.94457C101.525 7.94457 102.82 8.46262 103.78 9.49874C104.74 10.5196 105.22 11.9062 105.22 13.6584V14.527H97.4262C97.5481 15.4107 97.868 16.0583 98.3861 16.4697C98.9194 16.8658 99.6508 17.0639 100.58 17.0639C101.19 17.0639 101.807 16.9725 102.432 16.7897C103.056 16.6068 103.62 16.3249 104.123 15.944L105.037 18.2524C104.473 18.679 103.78 19.0219 102.957 19.2809C102.15 19.5247 101.334 19.6466 100.512 19.6466ZM100.032 10.2301C99.3003 10.2301 98.7061 10.4511 98.249 10.8929C97.8071 11.3348 97.5328 11.9519 97.4262 12.7442H102.363C102.272 11.0682 101.494 10.2301 100.032 10.2301Z" fill="#9CAEB8"/>
<path d="M41.9803 32.4768L37.4092 21.2547H40.9061L43.5802 28.4542L46.2543 21.2547H48.5398L51.2139 28.5457L53.888 21.2547H57.2021L52.6767 32.4768H49.7512L47.2828 26.1001L44.8829 32.4768H41.9803Z" fill="#9CAEB8"/>
<path d="M61.5842 32.7753C60.7461 32.7753 60.0071 32.6153 59.3672 32.2953C58.7272 31.9753 58.2168 31.5411 57.8359 30.9925C57.4702 30.444 57.2873 29.8269 57.2873 29.1412C57.2873 28.3337 57.5006 27.6861 57.9273 27.1985C58.3539 26.7109 59.0472 26.3681 60.0071 26.17C60.9671 25.9567 62.2394 25.85 63.824 25.85H64.6468V25.4615C64.6468 24.7911 64.4944 24.3187 64.1897 24.0445C63.885 23.755 63.3669 23.6102 62.6355 23.6102C62.026 23.6102 61.3785 23.7092 60.6928 23.9073C60.0224 24.0902 59.3519 24.3721 58.6815 24.753L57.7444 22.4446C58.1406 22.1855 58.6206 21.9494 59.1843 21.7361C59.7633 21.5227 60.3652 21.3627 60.9899 21.2561C61.6146 21.1342 62.2089 21.0732 62.7726 21.0732C64.5097 21.0732 65.8048 21.4694 66.6581 22.2617C67.5114 23.0388 67.938 24.2502 67.938 25.8958V32.5239H64.7154V30.8326C64.4868 31.4268 64.0983 31.8991 63.5497 32.2496C63.0164 32.6 62.3612 32.7753 61.5842 32.7753ZM62.3612 30.4669C63.0012 30.4669 63.5421 30.2459 63.984 29.8041C64.4259 29.3622 64.6468 28.7908 64.6468 28.0899V27.6328H63.8469C62.6736 27.6328 61.8432 27.7394 61.3556 27.9528C60.868 28.1508 60.6242 28.5013 60.6242 29.0041C60.6242 29.4307 60.769 29.7812 61.0585 30.0555C61.3632 30.3297 61.7975 30.4669 62.3612 30.4669Z" fill="#9CAEB8"/>
<path d="M75.6423 32.7753C74.3235 32.7753 73.2009 32.5301 72.2746 32.0396C71.3591 31.5492 70.5243 30.9366 69.9623 30.0288C69.3772 29.0837 69.2481 28.067 69.2481 26.89C69.2481 25.6693 69.4068 24.5274 70.0417 23.6277C70.6963 22.7 71.4571 22.1163 72.4053 21.6259C73.3535 21.1355 74.5494 21.096 75.8384 21.096C76.5334 21.096 77.3904 21.1161 78.1206 21.3341C78.8508 21.5521 79.3904 21.7309 79.9254 22.0673L79.0099 24.3887C78.1722 23.8424 77.0253 23.6277 75.8384 23.6277C74.8032 23.6277 73.9475 23.9993 73.4026 24.5878C72.8685 25.1764 72.5852 25.7783 72.5852 26.89C72.5852 28.0016 72.9728 28.7827 73.5178 29.3494C74.0627 29.9161 74.754 30.2577 75.8221 30.2577C76.3234 30.2577 76.8847 30.1814 77.5059 30.0288V28.2142H75.2009V26.1053H79.9581V31.8925C79.3478 32.1758 78.6666 32.3938 77.9146 32.5464C77.1626 32.699 76.4052 32.7753 75.6423 32.7753Z" fill="#9CAEB8"/>
<path d="M87.1672 32.7753C85.9635 32.7753 84.9121 32.5391 84.0131 32.0667C83.1294 31.5792 82.4437 30.9011 81.9561 30.0326C81.4685 29.1489 81.2247 28.1051 81.2247 26.9014C81.2247 25.7129 81.4685 24.6844 81.9561 23.8159C82.4437 22.9322 83.1294 22.2541 84.0131 21.7818C84.9121 21.3094 85.9635 21.0732 87.1672 21.0732C88.3709 21.0732 89.4146 21.3094 90.2984 21.7818C91.1974 22.2541 91.8907 22.9322 92.3782 23.8159C92.8811 24.6844 93.1325 25.7129 93.1325 26.9014C93.1325 28.1051 92.8811 29.1489 92.3782 30.0326C91.8907 30.9011 91.1974 31.5792 90.2984 32.0667C89.4146 32.5391 88.3709 32.7753 87.1672 32.7753ZM87.1672 30.1926C87.8986 30.1926 88.4928 29.926 88.9499 29.3927C89.4223 28.8594 89.6584 28.0289 89.6584 26.9014C89.6584 25.7891 89.4223 24.9739 88.9499 24.4559C88.4928 23.9226 87.8986 23.6559 87.1672 23.6559C86.4358 23.6559 85.8416 23.9226 85.3845 24.4559C84.9273 24.9739 84.6988 25.7891 84.6988 26.9014C84.6988 28.0289 84.9273 28.8594 85.3845 29.3927C85.8416 29.926 86.4358 30.1926 87.1672 30.1926Z" fill="#9CAEB8"/>
<path d="M94.4385 32.5239V21.3018H97.8212V22.9474C98.2021 22.3379 98.7125 21.8732 99.3525 21.5532C99.9924 21.2332 100.709 21.0732 101.501 21.0732C102.827 21.0732 103.817 21.4618 104.472 22.2389C105.127 23.0007 105.455 24.1816 105.455 25.7815V32.5239H102.004V25.9415C102.004 25.1644 101.859 24.6082 101.569 24.273C101.28 23.9226 100.853 23.7473 100.29 23.7473C99.5582 23.7473 98.9716 23.9759 98.5297 24.433C98.1031 24.8901 97.8897 25.4996 97.8897 26.2614V32.5239H94.4385Z" fill="#9CAEB8"/>
<defs>
<clipPath id="clip0_31568_175721">
<rect width="34.8082" height="37.9338" fill="white" transform="translate(0.5 0.03125)"/>
</clipPath>
</defs>
</svg>
