<svg width="106" height="32" viewBox="0 0 106 32" fill="none" xmlns="http://www.w3.org/2000/svg">
<g clip-path="url(#clip0_31568_175730)">
<path d="M24.0728 7.95411V17.7277C24.0728 17.8861 24.0099 18.0381 23.8978 18.1501C23.7858 18.2621 23.6339 18.3251 23.4754 18.3251H20.3902C20.2318 18.325 20.0799 18.262 19.9679 18.15C19.8559 18.038 19.7929 17.8861 19.7928 17.7277V1.83048C19.7928 1.67205 19.8558 1.52011 19.9678 1.40809C20.0798 1.29606 20.2318 1.23313 20.3902 1.23313H23.2452C23.4037 1.23313 23.5556 1.29606 23.6676 1.40809C23.7797 1.52011 23.8426 1.67205 23.8426 1.83048V4.06923C23.8426 4.06923 24.8632 0.875718 27.8921 0.875718C27.8921 0.875718 30.8881 0.513567 32.1062 3.83877C32.1062 3.83877 33.1268 0.875718 36.2216 0.875718C36.2216 0.875718 40.8239 0.602063 40.8239 5.36428L40.8589 7.98704V17.7606C40.8589 17.9191 40.796 18.071 40.684 18.183C40.5719 18.295 40.42 18.358 40.2616 18.358H37.1761C37.0176 18.3579 36.8657 18.2949 36.7537 18.1829C36.6417 18.0709 36.5788 17.919 36.5787 17.7606L36.5505 7.09812C36.6382 4.6837 34.685 4.85937 34.685 4.85937C32.2268 4.90336 32.4634 7.98704 32.4634 7.98704V17.7606C32.4634 17.9191 32.4004 18.071 32.2884 18.183C32.1764 18.295 32.0244 18.358 31.866 18.358H28.7807C28.6223 18.3579 28.4704 18.2949 28.3584 18.1829C28.2464 18.0709 28.1835 17.919 28.1834 17.7606V7.33938C28.1834 7.33938 28.3638 4.83725 26.1688 4.83725C26.169 4.83725 23.9961 4.55201 24.0728 7.95411ZM103.602 7.92488V17.6982C103.602 17.8566 103.539 18.0085 103.427 18.1205C103.315 18.2325 103.163 18.2955 103.005 18.2956L99.7962 18.3577C99.6378 18.3576 99.4859 18.2947 99.3739 18.1827C99.2619 18.0707 99.199 17.9188 99.1989 17.7604V7.33938C99.1989 7.33938 99.3793 4.83725 97.1845 4.83725C97.1845 4.83725 95.0883 4.734 95.0883 8.65708V17.7274C95.0882 17.8858 95.0252 18.0377 94.9132 18.1497C94.8012 18.2618 94.6493 18.3247 94.4909 18.3248H91.4054C91.247 18.3247 91.0951 18.2618 90.9831 18.1497C90.8711 18.0377 90.8081 17.8858 90.8081 17.7274V1.83048C90.8081 1.67207 90.8711 1.52017 90.9831 1.40816C91.0951 1.29615 91.247 1.2332 91.4054 1.23313H94.2605C94.4189 1.23313 94.5708 1.29606 94.6829 1.40809C94.7949 1.52011 94.8578 1.67205 94.8578 1.83048V4.06923C94.8578 4.06923 95.8784 0.875718 98.9073 0.875718C98.9073 0.875718 102.152 0.383457 103.245 3.77687C103.245 3.77661 103.602 4.47668 103.602 7.92488ZM81.3255 0.809872C77.38 0.809872 74.1813 4.13507 74.1813 9.73194C74.1813 14.6596 76.6505 18.654 81.3255 18.654C85.7372 18.654 88.4697 14.6596 88.4697 9.73194C88.4697 4.23384 85.2712 0.809872 81.3255 0.809872ZM83.8158 9.92948C83.8158 12.0365 83.5524 13.1559 83.5524 13.1559C83.1776 15.3833 81.5607 15.3865 81.3223 15.3746C81.065 15.3849 79.4344 15.3617 79.097 13.1559C79.097 13.1559 78.8336 12.0365 78.8336 9.92948V9.57839C78.8336 7.47133 79.097 6.35196 79.097 6.35196C79.4344 4.14613 81.0653 4.12296 81.3223 4.13297C81.5607 4.12111 83.1776 4.12401 83.5524 6.35196C83.5524 6.35196 83.8158 7.47133 83.8158 9.57839V9.92948ZM72.3905 4.0471V1.76621C72.3905 1.60781 72.3275 1.45591 72.2155 1.3439C72.1035 1.23189 71.9516 1.16893 71.7932 1.16886H61.595C61.4366 1.16886 61.2846 1.2318 61.1726 1.34382C61.0606 1.45585 60.9977 1.60779 60.9977 1.76621V4.02946C60.9977 4.18786 61.0607 4.33976 61.1727 4.45177C61.2847 4.56378 61.4366 4.62674 61.595 4.62681H66.9145L60.6181 13.7609C60.6181 13.7609 60.37 14.1312 60.3782 14.5402V17.3187C60.3782 17.3187 60.3371 18.2713 61.4175 17.7185C61.4175 17.7185 63.3365 16.5591 66.5542 16.5591C66.5542 16.5591 69.7319 16.5196 71.8506 17.8183C71.8506 17.8183 72.73 18.2181 72.73 17.3389V14.9206C72.73 14.9206 72.8098 14.2806 71.9704 13.881C71.9704 13.881 69.532 12.542 66.3343 12.7616L72.3905 4.0471ZM17.4116 15.4821L16.4458 14.0119C16.1384 13.463 16.1605 12.8483 16.1605 12.8483V6.06645C16.2922 0.2062 9.79536 0.711104 9.79536 0.711104C4.01992 0.711104 3.16682 5.20572 3.16682 5.20572C2.92609 6.10938 3.62616 6.13125 3.62616 6.13125L6.4483 6.41754C6.4483 6.41754 6.9295 6.52764 7.10465 5.95478C7.10465 5.95478 7.47628 3.9939 9.55463 3.9939C11.816 3.9939 11.7926 5.93476 11.7926 5.93476V7.55957C7.27822 7.71048 5.18618 8.96366 5.18618 8.96366C2.3988 10.544 2.57421 13.6827 2.57421 13.6827C2.57421 18.7965 7.44678 18.5768 7.44678 18.5768C10.5634 18.5768 12.4071 16.2944 12.4071 16.2944C12.9557 17.2605 13.9655 18.1818 13.9655 18.1818C14.4707 18.7296 14.9972 18.2697 14.9972 18.2697L17.2799 16.3165C17.7845 15.943 17.4116 15.4821 17.4116 15.4821ZM8.96782 15.4189C7.50183 15.4189 6.95689 13.9621 7.20026 12.5304C7.44389 11.0986 8.70918 9.97346 11.7929 10.0064V10.8769C11.9022 14.6796 10.1881 15.4189 8.96782 15.4189ZM58.4112 15.4821L57.4457 14.0119C57.1383 13.463 57.1602 12.8483 57.1602 12.8483V6.06645C57.2919 0.2062 50.795 0.711104 50.795 0.711104C45.0196 0.711104 44.1665 5.20572 44.1665 5.20572C43.9257 6.10938 44.6258 6.13125 44.6258 6.13125L47.448 6.41754C47.448 6.41754 47.9292 6.52764 48.1043 5.95478C48.1043 5.95478 48.4759 3.9939 50.5543 3.9939C52.8157 3.9939 52.7922 5.93476 52.7922 5.93476V7.55957C48.2781 7.71048 46.1858 8.96366 46.1858 8.96366C43.3985 10.544 43.5739 13.6827 43.5739 13.6827C43.5739 18.7965 48.4464 18.5768 48.4464 18.5768C51.563 18.5768 53.4067 16.2944 53.4067 16.2944C53.9556 17.2605 54.9649 18.1818 54.9649 18.1818C55.4701 18.7296 55.9968 18.2697 55.9968 18.2697L58.2793 16.3165C58.7842 15.943 58.4112 15.4821 58.4112 15.4821ZM49.9675 15.4189C48.5015 15.4189 47.9566 13.9621 48.1999 12.5304C48.4435 11.0986 49.7088 9.97346 52.7922 10.0064V10.8769C52.9018 14.6796 51.188 15.4189 49.9675 15.4189Z" fill="#9CAEB8"/>
<path d="M66.1765 28.3182C66.1765 28.3182 65.9184 28.7673 66.2355 28.8676C66.2355 28.8676 66.5937 29.0075 67.0404 28.5929C67.0404 28.5929 70.2982 25.7471 70.3767 20.5658C70.3767 20.5658 70.4006 19.9187 70.1409 19.7417C70.1409 19.7417 69.1203 18.8388 65.4504 19.1135C65.4504 19.1135 62.2513 19.3295 60.5048 20.88C60.5048 20.88 60.3479 21.0173 60.3479 21.1937C60.3479 21.1937 60.3102 21.5748 61.2702 21.4097C61.2702 21.4097 64.469 20.958 66.3727 21.1937C66.3727 21.1937 67.3544 21.3115 67.6291 21.6454C67.6291 21.6454 68.0805 22.0184 67.8448 23.2544C67.8448 23.255 67.1968 26.395 66.1765 28.3182Z" fill="#9CAEB8"/>
<path d="M65.5328 23.346C65.5328 23.346 66.0106 23.9649 65.2397 24.4988C65.2397 24.4988 57.0045 31.086 43.1769 31.086C43.1769 31.086 28.9432 31.7882 17.0581 20.9895C17.0581 20.9895 16.6414 20.6237 16.9001 20.2836C16.9001 20.2836 17.1313 19.9707 17.73 20.311C17.73 20.311 28.9103 27.2777 43.5938 27.2777C43.5938 27.2777 53.7999 27.6728 64.2693 23.1953C64.2693 23.1953 65.1035 22.7631 65.5328 23.346Z" fill="#9CAEB8"/>
</g>
<defs>
<clipPath id="clip0_31568_175730">
<rect width="105" height="31.584" fill="white" transform="translate(0.5 0.206055)"/>
</clipPath>
</defs>
</svg>
