<svg width="106" height="38" viewBox="0 0 106 38" fill="none" xmlns="http://www.w3.org/2000/svg">
<g clip-path="url(#clip0_31568_175736)">
<path d="M105.171 27.8024L102.702 28.1315C102.702 28.1315 102.538 27.1441 101.715 26.4858C100.892 25.8275 98.094 25.992 98.094 27.6378C98.094 29.119 99.2461 28.9544 101.55 29.4481C103.69 29.9419 105.5 30.6002 105.5 33.5626C105.5 35.2083 104.348 37.1833 100.727 37.1833C94.8025 37.1833 95.2962 32.7397 95.2962 32.7397H97.9295C97.9295 32.7397 98.094 34.2209 99.0815 34.55C100.234 35.0438 102.208 34.8792 102.538 33.8917C102.867 32.9043 102.867 31.7522 99.7398 31.4231C96.6129 30.9293 95.2962 29.6127 95.2962 27.4732C95.4608 25.4983 96.6129 23.8525 100.727 23.8525C104.842 24.0171 105.171 27.8024 105.171 27.8024ZM93.815 27.8024L91.3464 28.1315C91.3464 28.1315 91.1818 27.1441 90.3589 26.4858C89.536 25.8275 86.7383 25.992 86.7383 27.6378C86.7383 29.119 87.8903 28.9544 90.1944 29.4481C92.3339 29.9419 94.1442 30.6002 94.1442 33.5626C94.1442 35.2083 92.9922 37.1833 89.3715 37.1833C83.4467 37.1833 83.9404 32.7397 83.9404 32.7397H86.7383C86.7383 32.7397 86.9028 34.2209 87.8903 34.55C89.0423 35.0438 91.0172 34.8792 91.3464 33.8917C91.6756 32.9043 91.6756 31.7522 88.5486 31.4231C85.7508 31.0939 84.2696 29.9419 84.2696 28.1315V27.4732C84.4342 25.4983 85.5862 23.8525 89.536 23.8525C93.3213 24.0171 93.815 27.8024 93.815 27.8024ZM79.826 32.4105H82.6238V32.5751C82.4593 33.5626 81.9655 37.0187 77.1928 37.0187C72.9138 37.0187 71.4326 33.7271 71.4326 30.271C71.4326 26.6503 73.5721 24.0171 77.5219 24.0171C81.9655 24.0171 82.2947 28.2961 82.2947 28.2961L79.6614 28.6253C79.6614 28.6253 79.4969 26.3212 77.1928 26.3212C74.8887 26.3212 74.0658 28.1315 74.0658 30.271C74.0658 32.4105 74.7241 34.8792 77.0282 34.8792C79.3323 34.8792 79.826 32.4105 79.826 32.4105ZM65.837 24.3463V36.8541H63.5329V35.7021C63.5329 35.7021 62.71 37.1833 60.7351 37.1833C58.5956 37.1833 57.1144 36.1958 56.9498 32.4105C56.9498 28.4607 59.4185 27.4732 61.0643 27.4732C62.5455 27.4732 63.5329 28.6253 63.5329 28.6253V24.3463H65.837ZM63.5329 32.246C63.5329 30.9293 63.3683 29.4481 61.3934 29.4481C59.4185 29.4481 59.4185 31.7522 59.4185 32.4105C59.4185 33.2334 59.5831 35.0438 61.3934 35.0438C63.2038 35.0438 63.5329 33.5626 63.5329 32.246ZM55.1395 30.6002V36.6895H52.6708V30.7648C52.6708 29.9419 52.1771 29.2836 51.1897 29.2836C50.2022 29.2836 49.2147 30.1065 49.2147 30.9293V36.6895H46.7461V27.4732H49.2147V28.7898C49.2147 28.7898 50.0376 27.1441 52.5063 27.3087C55.3041 27.6378 55.1395 30.271 55.1395 30.6002ZM42.3025 27.6378H44.7712V36.8541H42.3025V27.6378ZM42.3025 24.3463H44.7712V26.4858H42.3025V24.3463ZM41.315 27.6378L38.6818 36.8541H36.2132L34.5674 30.7648L32.9216 36.8541H30.6176L27.9843 27.6378H30.6176L31.9342 33.5626L33.7445 27.6378H35.884L37.3652 33.7271L38.6818 27.6378H41.315ZM24.3636 24.1817H26.8323V36.6895H24.3636V24.1817ZM19.9201 27.6378H22.3887V36.8541H19.9201V27.6378ZM19.9201 24.3463H22.3887V26.4858H19.9201V24.3463ZM17.9451 30.9293V36.6895H15.6411V35.5375C15.6411 35.5375 14.9828 36.3604 13.9953 36.6895C12.5141 37.1833 10.3746 36.8541 9.7163 35.2083C9.22257 33.8917 9.7163 32.4105 11.0329 31.7522C12.6787 30.9293 15.4765 31.0939 15.4765 31.0939C15.4765 31.0939 15.6411 30.4356 15.3119 29.9419C15.1473 29.4482 14.6536 29.2836 13.9953 29.2836C12.3495 29.2836 12.3495 30.4356 12.3495 30.4356L10.0455 30.271C10.0455 30.271 10.0455 29.119 11.1975 28.2961C11.8558 27.8024 12.6787 27.6378 14.1599 27.6378C15.9702 27.6378 17.9451 28.2961 17.9451 30.9293ZM14.1599 35.0438C15.8056 34.7146 15.6411 32.7397 15.6411 32.7397H14.9828C14.489 32.7397 13.8307 32.7397 13.337 32.9043C12.5141 33.0688 12.185 33.398 12.0204 33.7271C11.8558 34.2209 12.0204 34.7146 12.5141 35.0438C12.8433 35.2083 13.337 35.2083 14.1599 35.0438ZM10.7038 24.1817V26.6503H6.9185V36.8541H4.12069V26.4858H0.5V24.1817H10.7038Z" fill="#9CAEB8"/>
<path d="M71.4321 4.59679C71.4321 4.59679 69.128 8.0529 65.1782 7.3946C61.2283 6.73629 60.57 0.811523 53.4932 0.811523C44.7707 0.811523 43.7832 8.21748 43.7832 8.21748C43.7832 8.21748 46.2519 4.59679 50.0371 5.2551C53.8224 5.9134 55.3036 11.8382 63.0387 11.8382C70.7738 11.8382 71.4321 4.59679 71.4321 4.59679Z" fill="#9CAEB8"/>
<path d="M62.2168 15.6241C62.2168 15.6241 59.9127 19.0802 55.9629 18.4219C52.013 17.7636 51.3547 11.8389 44.2779 11.8389C35.5553 11.8389 34.5679 19.2448 34.5679 19.2448C34.5679 19.2448 37.0365 15.6241 40.8218 16.2824C44.4425 16.9407 46.0882 22.8655 53.8234 22.8655C61.5585 22.8655 62.2168 15.6241 62.2168 15.6241Z" fill="#9CAEB8"/>
</g>
<defs>
<clipPath id="clip0_31568_175736">
<rect width="105" height="36.372" fill="white" transform="translate(0.5 0.811523)"/>
</clipPath>
</defs>
</svg>
