<svg width="150" height="10" viewBox="0 0 150 10" fill="none" xmlns="http://www.w3.org/2000/svg">
<g clip-path="url(#clip0_31568_175742)">
<path d="M128.149 3.99037V9.8838H131.916V5.95485H145.695V9.8838H149.462V3.99037H128.149ZM131.486 2.07971H146.018C148.063 1.89134 149.516 0.976375 149.947 0.115234H127.557C127.987 0.976375 129.494 1.86443 131.486 2.07971ZM116.685 9.8838C118.569 9.48014 119.591 8.78047 120.022 7.97315H103.068V0.142145H99.2469V9.8838H116.685ZM70.9907 2.0528H84.446C86.4912 1.75678 88.1597 0.976375 88.5903 0.142145H67.277V5.90103H84.7151V7.91932H71.0445C68.8917 8.21534 67.0617 8.94193 66.1468 9.8838H88.4826V3.99037H71.0445L70.9907 2.0528ZM37.8368 2.07971H52.3685C54.4137 1.89134 55.9207 0.976375 56.2975 0.115234H33.854C34.2846 0.976375 35.7916 1.86443 37.8368 2.07971ZM37.8368 5.92794H52.3685C54.4137 5.73956 55.9207 4.8246 56.2975 3.96346H33.854C34.2846 4.8246 35.7916 5.71265 37.8368 5.92794ZM37.8368 9.8838H52.3685C54.4137 9.69543 55.9207 8.78047 56.2975 7.91932H33.854C34.2846 8.78047 35.7916 9.69543 37.8368 9.8838Z" fill="#9CAEB8"/>
<path d="M0 0.141168C0.430571 1.00231 1.93757 1.86345 3.92896 2.07874H10.0646L10.3875 2.13256V9.85592H14.2088V2.13256L14.5318 2.07874H20.6674C22.7126 1.80963 24.1658 1.00231 24.5963 0.141168V0.114258L0 0.141168Z" fill="#9CAEB8"/>
</g>
<defs>
<clipPath id="clip0_31568_175742">
<rect width="150" height="9.78" fill="white" transform="translate(0 0.108398)"/>
</clipPath>
</defs>
</svg>
