<svg width="150" height="20" viewBox="0 0 150 20" fill="none" xmlns="http://www.w3.org/2000/svg">
<g clip-path="url(#clip0_31568_175748)">
<path d="M35.0131 7.57989H22.3617L21.9098 7.9414V19.192H25.389V14.9448L25.7052 14.6285H35.013C37.3625 14.6285 38.4469 13.996 38.4469 12.3695V9.79398C38.447 8.21245 37.3626 7.57989 35.0131 7.57989ZM35.0131 11.7367C35.0131 12.5048 34.516 12.6403 33.3865 12.6403H25.7505L25.389 12.3241V9.92942L25.7052 9.61314H33.3864C34.4708 9.61314 35.0129 9.74869 35.0129 10.5168L35.0131 11.7367ZM44.8631 9.70346L47.8903 14.1314L47.7096 14.5381H41.0225L39.3055 16.6617H49.2458L49.9687 17.0683L51.505 19.192H55.5263L46.7156 7.44434M84.7599 16.9328V13.77L85.1214 13.4537H91.8537V11.4656H81.1904V19.192H96.9142V17.2039H85.1665M81.1904 7.57989H97.0497V9.74869H81.1904V7.57989ZM63.5238 9.6583H76.3106C76.1299 8.03173 75.0906 7.57989 72.5604 7.57989H63.3882C60.4965 7.57989 59.5929 8.12212 59.5929 10.336V16.4809C59.5929 18.6498 60.4965 19.2372 63.3882 19.2372H72.5604C75.1359 19.2372 76.1299 18.7401 76.2203 17.0683H63.5238L63.1623 16.7068V9.92942M13.3251 12.0982H4.06253L3.79141 11.782V9.79392L4.06253 9.56803H16.5783L16.759 9.16136C16.3523 8.0769 15.2228 7.53479 13.1895 7.53479H4.46914C1.57744 7.53479 0.673763 8.07696 0.673763 10.2909V11.6012C0.673763 13.7701 1.57744 14.3575 4.46914 14.3575H13.7318L14.0028 14.6285V16.7069L13.7769 17.0232H0.402647C0.402647 17.0232 0.0864258 17.2039 0.0864258 17.2491C0.312315 18.7854 1.35155 19.192 3.83658 19.192H13.3251C16.2168 19.192 17.1657 18.6498 17.1657 16.4358V14.8544C17.1657 12.6856 16.2168 12.0982 13.3251 12.0982ZM107.035 7.53473H101.794L101.523 8.07689L107.306 12.3242C108.391 11.6916 109.611 11.059 110.876 10.4264M111.734 15.487L116.84 19.192H122.081L122.307 18.6949L114.716 13.1374C113.722 13.9055 112.683 14.6736 111.734 15.487Z" fill="#9CAEB8"/>
<path d="M106.267 19.1926H101.523L101.116 18.56C104.324 15.4424 118.692 2.1585 149.914 0.757812C149.914 0.757812 123.753 1.66143 106.267 19.1926Z" fill="#9CAEB8"/>
</g>
<defs>
<clipPath id="clip0_31568_175748">
<rect width="150" height="18.48" fill="white" transform="translate(0 0.757812)"/>
</clipPath>
</defs>
</svg>
