<svg width="150" height="30" viewBox="0 0 150 30" fill="none" xmlns="http://www.w3.org/2000/svg">
<g clip-path="url(#clip0_31568_175752)">
<path d="M52.8748 22.6156V11.7574L48.6338 22.6156H47.2375L42.9968 11.7593V22.6156H39.7947V7.55957H44.282L47.935 16.9712L51.5887 7.55957H56.0983V22.6156H52.8748Z" fill="#9CAEB8"/>
<path d="M65.2948 22.6144V21.4614C64.5505 22.364 63.2656 22.8831 61.8445 22.8831C60.1081 22.8831 58.0789 21.7095 58.0789 19.2722C58.0789 16.699 60.1081 15.7512 61.8445 15.7512C63.3108 15.7512 64.5731 16.225 65.2948 17.0829V15.706C65.2948 14.6001 64.3478 13.8777 62.9045 13.8777C61.7545 13.8777 60.6719 14.3294 59.7701 15.1628L58.6418 13.1542C59.9707 11.9579 61.6858 11.4385 63.3996 11.4385C65.903 11.4385 68.1807 12.4315 68.1807 15.5685V22.6144H65.2948ZM65.2948 19.9961V18.6402C64.8213 18.0081 63.9192 17.6698 62.9948 17.6698C61.8665 17.6698 60.9427 18.2788 60.9427 19.3173C60.9427 20.3559 61.8671 20.9423 62.9948 20.9423C63.9192 20.9423 64.8234 20.6261 65.2948 19.9941V19.9961Z" fill="#9CAEB8"/>
<path d="M70.4875 22.6163V11.7129H73.3502V22.6163H70.4875Z" fill="#9CAEB8"/>
<path d="M75.717 22.6156V7.55957H78.5812V22.6156H75.717Z" fill="#9CAEB8"/>
<path d="M81.134 22.6156V7.55957H89.0494C91.9132 7.55957 93.3789 9.38981 93.3789 11.3964C93.3789 13.2698 92.2063 14.5561 90.7858 14.8497C92.4093 15.0977 93.6723 16.655 93.6723 18.5284C93.6723 20.808 92.1837 22.6137 89.2976 22.6137L81.134 22.6156ZM90.109 11.9626C90.109 11.0374 89.4325 10.3828 88.35 10.3828H84.3352V13.5424H88.3491C89.4313 13.5424 90.1078 12.933 90.1078 11.9626H90.109ZM90.4024 18.079C90.4024 17.1312 89.7259 16.3637 88.4855 16.3637H84.3352V19.7944H88.4843C89.6795 19.7944 90.4012 19.1624 90.4012 18.079H90.4024Z" fill="#9CAEB8"/>
<path d="M95.7488 22.6156V7.55957H98.6126V22.6156H95.7488Z" fill="#9CAEB8"/>
<path d="M108.302 22.6163V21.2374C107.558 22.0501 106.25 22.885 104.468 22.885C102.078 22.885 100.95 21.5762 100.95 19.4543V11.7129H103.815V18.3258C103.815 19.8383 104.604 20.3348 105.822 20.3348C106.927 20.3348 107.806 19.7253 108.303 19.0933V11.7129H111.166V22.6163H108.302Z" fill="#9CAEB8"/>
<path d="M112.716 21.1914L113.956 19.117C114.768 19.8845 116.368 20.6291 117.722 20.6291C118.962 20.6291 119.549 20.1552 119.549 19.478C119.549 17.6953 113.099 19.1622 113.099 14.874C113.099 13.0438 114.678 11.4434 117.565 11.4434C119.393 11.4434 120.857 12.0753 121.939 12.9328L120.789 14.9644C120.135 14.2872 118.895 13.7003 117.565 13.7003C116.527 13.7003 115.853 14.1517 115.853 14.7611C115.853 16.3635 122.324 15.0091 122.324 19.4102C122.324 21.4192 120.612 22.8861 117.589 22.8861C115.693 22.8841 113.866 22.2521 112.716 21.1914Z" fill="#9CAEB8"/>
<path d="M124.756 19.8819V14.2168H122.952V11.7114H124.756V8.73242H127.619V11.7114H129.829V14.2168H127.619V19.1164C127.619 19.8173 127.981 20.3352 128.612 20.3352C129.04 20.3352 129.446 20.1771 129.604 19.9964L130.213 22.1864C129.785 22.5704 129.018 22.8874 127.822 22.8874C125.816 22.8835 124.756 21.8453 124.756 19.8819Z" fill="#9CAEB8"/>
<path d="M130.649 17.1507C130.649 13.9907 132.994 11.4404 136.286 11.4404C139.554 11.4404 141.744 13.8777 141.744 17.4213V18.0974H133.647C133.851 19.4287 134.932 20.5346 136.782 20.5346C137.707 20.5346 138.97 20.1511 139.669 19.4739L140.953 21.3699C139.87 22.3629 138.156 22.882 136.465 22.882C133.151 22.8832 130.649 20.6487 130.649 17.1507ZM136.286 13.7878C134.505 13.7878 133.738 15.0288 133.625 16.1121H138.994C138.902 15.074 138.18 13.7878 136.286 13.7878Z" fill="#9CAEB8"/>
<path d="M143.417 22.6145V11.7111H146.281V13.1784C147.07 12.2302 148.4 11.4404 149.753 11.4404V14.2391C149.551 14.1939 149.302 14.1714 148.964 14.1714C148.017 14.1714 146.754 14.713 146.28 15.4128V22.6145H143.417Z" fill="#9CAEB8"/>
<path d="M27.473 22.3999C24.8557 26.9377 20.1721 29.5366 15.2989 29.6947C14.0862 29.7336 13.2995 28.4307 13.9061 27.3796L15.583 24.4727C15.6815 24.3062 15.7126 24.1083 15.6698 23.9196C15.6269 23.7309 15.5134 23.5658 15.3526 23.4583C15.2707 23.4055 15.1792 23.3693 15.0832 23.3518C14.9873 23.3344 14.8889 23.336 14.7936 23.3567C14.6983 23.3773 14.608 23.4166 14.5279 23.4722C14.4478 23.5277 14.3794 23.5986 14.3267 23.6807L14.308 23.7114L11.7452 28.1538C11.5653 28.4671 11.2811 28.7073 10.9423 28.8321C10.6035 28.957 10.2316 28.9587 9.89162 28.8368L9.85623 28.824C9.47322 28.6822 9.16216 28.394 8.99141 28.0228C8.82069 27.6515 8.80427 27.2276 8.94578 26.8442C8.97659 26.7617 9.01421 26.6818 9.05822 26.6055L12.8941 19.9583C12.9921 19.7921 13.0229 19.5946 12.9801 19.4064C12.9374 19.2181 12.8244 19.0534 12.6642 18.9459C12.4987 18.8391 12.2976 18.8025 12.1051 18.844C11.9127 18.8856 11.7446 19.0019 11.6378 19.1674C11.6312 19.1776 11.6249 19.1881 11.6187 19.1986L7.77156 25.8625C7.65981 26.0572 7.50689 26.2251 7.32355 26.3544C7.14021 26.4838 6.93081 26.5715 6.71005 26.6114C6.4893 26.6513 6.26249 26.6424 6.04551 26.5855C5.82855 26.5285 5.62662 26.4248 5.45388 26.2815L5.42548 26.2574C5.15036 26.0237 4.96596 25.7008 4.90454 25.3449C4.8431 24.989 4.90849 24.6229 5.0893 24.3103L7.64162 19.8851C7.73972 19.7191 7.77078 19.5218 7.7284 19.3336C7.68602 19.1454 7.57343 18.9805 7.41361 18.8727C7.33171 18.8198 7.24018 18.7836 7.14427 18.7661C7.04837 18.7486 6.94996 18.7502 6.85466 18.7709C6.75939 18.7915 6.66912 18.8307 6.58897 18.8862C6.50882 18.9418 6.44042 19.0126 6.38764 19.0946C6.38102 19.1047 6.37442 19.1152 6.36858 19.1258L4.68078 22.051C4.0746 23.1024 2.55295 23.072 1.98179 22.0015C-0.318792 17.6962 -0.412171 12.3349 2.20589 7.79946C6.23433 0.816618 15.1558 -1.57629 22.1334 2.45563C29.111 6.48757 31.5012 15.4167 27.473 22.3999Z" fill="#9CAEB8"/>
<path d="M19.5087 24.5034C17.9365 23.1015 15.3367 20.2978 14.6091 16.6179C14.5905 16.5221 14.5532 16.431 14.4994 16.3496C14.4456 16.2683 14.3763 16.1983 14.2955 16.1438C14.2147 16.0893 14.1239 16.0512 14.0284 16.0318C13.9328 16.0124 13.8344 16.012 13.7388 16.0307C13.7049 16.037 13.6716 16.0458 13.6391 16.0572C10.0908 17.2686 6.36779 16.4158 4.36719 15.755C4.23134 15.71 4.1114 15.6266 4.02179 15.5149C3.93222 15.4032 3.87679 15.268 3.86225 15.1255C3.8477 14.9831 3.8746 14.8394 3.93975 14.7119C4.0049 14.5844 4.10553 14.4785 4.22944 14.4069L19.6305 5.50852C19.7433 5.44337 19.8713 5.40912 20.0016 5.40918C20.1319 5.40924 20.2598 5.44361 20.3726 5.50885C20.4854 5.57409 20.5791 5.66785 20.6442 5.78081C20.7093 5.89373 20.7436 6.0218 20.7436 6.15219V23.9481C20.7435 24.0912 20.7021 24.2313 20.6244 24.3514C20.5466 24.4715 20.4359 24.5666 20.3055 24.6253C20.175 24.6839 20.0305 24.7036 19.8891 24.682C19.7478 24.6604 19.6157 24.5984 19.5087 24.5034Z" fill="white"/>
<path d="M73.1486 10.7344C72.8872 10.5008 72.4549 10.0335 72.3342 9.42329C72.3311 9.4073 72.3248 9.39208 72.3158 9.37853C72.3067 9.36495 72.295 9.35332 72.2814 9.34428C72.2679 9.33525 72.2528 9.32895 72.2366 9.32582C72.2206 9.32266 72.2043 9.32272 72.1884 9.32594C72.183 9.32687 72.1778 9.32817 72.1727 9.32983C71.5827 9.53154 70.9634 9.3898 70.6308 9.27998C70.5998 9.26958 70.5745 9.24739 70.5598 9.21817C70.5453 9.18898 70.5429 9.15522 70.5531 9.12422C70.5628 9.09543 70.5823 9.07109 70.6086 9.0557L73.1694 7.57594C73.1836 7.56787 73.1992 7.56263 73.2152 7.56058C73.2314 7.5585 73.2477 7.55964 73.2634 7.56392C73.279 7.56817 73.2938 7.57549 73.3067 7.58546C73.3197 7.5954 73.3302 7.60778 73.3384 7.6219C73.3492 7.64046 73.3549 7.66157 73.3546 7.68302V10.6425C73.3546 10.6663 73.3477 10.6896 73.3348 10.7096C73.3218 10.7295 73.3034 10.7453 73.2817 10.755C73.2601 10.7647 73.236 10.7679 73.2125 10.7643C73.189 10.7606 73.167 10.7503 73.1492 10.7344H73.1486Z" fill="#9CAEB8"/>
</g>
<defs>
<clipPath id="clip0_31568_175752">
<rect width="150" height="29.5181" fill="white" transform="translate(0 0.239258)"/>
</clipPath>
</defs>
</svg>
