<svg width="106" height="26" viewBox="0 0 106 26" fill="none" xmlns="http://www.w3.org/2000/svg">
<g clip-path="url(#clip0_31568_175768)">
<path d="M75.3303 10.1834C73.8063 10.1834 72.7187 10.7039 72.1848 11.6896L71.898 12.2235V10.4403H69.4182V21.2789H72.0265V14.8307C72.0265 13.2901 72.8638 12.4062 74.3224 12.4062C75.7135 12.4062 76.511 13.2668 76.511 14.7665V21.2789H79.1204V14.3013C79.1204 11.7207 77.7038 10.1834 75.3303 10.1834ZM62.6809 10.1834C59.6029 10.1834 57.6968 12.1039 57.6968 15.1951V16.7169C57.6968 19.6896 59.6251 21.5359 62.7296 21.5359C64.8063 21.5359 66.2616 20.775 67.1776 19.21L65.5605 18.2796C64.8838 19.1823 63.8028 19.7416 62.7307 19.7416C61.1591 19.7416 60.221 18.7714 60.221 17.1455V16.7147H67.501V14.9171C67.501 12.0374 65.6104 10.1834 62.6831 10.1834H62.6809ZM65.1275 14.9625H60.2121V14.7022C60.2121 12.9179 61.0882 11.9333 62.6786 11.9333C64.2104 11.9333 65.1252 12.9035 65.1252 14.5294L65.1275 14.9625ZM105.024 8.65604V6.58268H96.0018V8.65604H99.165V19.2011H96.0018V21.2745H105.024V19.2011H101.86V8.65604H105.024ZM36.6144 6.28364C32.5851 6.28364 30.0798 8.79449 30.0798 12.8382V15.0245C30.0798 19.0671 32.584 21.5791 36.6144 21.5791C40.6448 21.5791 43.149 19.0671 43.149 15.0245V12.8382C43.1479 8.79006 40.6404 6.28364 36.6144 6.28364ZM40.4532 15.174C40.4532 17.8588 39.0544 19.3983 36.6144 19.3983C34.1744 19.3983 32.7767 17.8588 32.7767 15.174V12.6876C32.7767 10.0028 34.1767 8.46332 36.6155 8.46332C39.0544 8.46332 40.4543 10.0028 40.4543 12.6876L40.4532 15.174ZM51.3416 10.1834C49.9727 10.1834 48.7876 10.7504 48.1696 11.6996L47.8894 12.1316V10.4403H45.4084V25.0081H48.0179V19.7316L48.297 20.1459C48.884 21.0164 50.0303 21.5359 51.3638 21.5359C53.6133 21.5359 55.8826 20.0661 55.8826 16.7811V14.9381C55.8826 12.5713 54.4838 10.1834 51.3416 10.1834ZM53.2732 16.6537C53.2732 18.4004 52.2543 19.4858 50.6151 19.4858C49.0867 19.4858 48.0201 18.3383 48.0201 16.6969V15.0666C48.0201 13.4053 49.0955 12.2357 50.6372 12.2357C52.2642 12.2357 53.2754 13.32 53.2754 15.0666L53.2732 16.6537ZM86.3306 6.58379L81.0664 21.2789H83.7168L84.7247 18.129H90.7764L90.7863 18.16L91.7831 21.2789H94.4324L89.1593 6.58268L86.3306 6.58379ZM85.3715 16.0568L87.7461 8.62724L90.0963 16.0568H85.3715ZM24.9784 10.6862C25.264 9.8289 25.3631 8.92048 25.2691 8.02177C25.1751 7.12305 24.8902 6.25479 24.4334 5.47512C23.7554 4.29677 22.721 3.36392 21.479 2.81082C20.2371 2.25773 18.8517 2.11291 17.5223 2.39721C16.9226 1.72098 16.1855 1.18064 15.3601 0.81237C14.5348 0.444101 13.6403 0.256401 12.7365 0.261833C11.3767 0.258738 10.0511 0.687642 8.95092 1.48668C7.85071 2.28572 7.03273 3.41358 6.615 4.70758C5.72976 4.88917 4.89349 5.25769 4.16213 5.78849C3.43078 6.31929 2.82119 7.00014 2.37415 7.7855C1.69252 8.96192 1.40173 10.3243 1.54364 11.6765C1.68554 13.0287 2.25283 14.301 3.16384 15.3103C2.87936 16.1668 2.78081 17.0742 2.87478 17.9718C2.96874 18.8695 3.25306 19.7367 3.70876 20.5158C4.38616 21.6964 5.42108 22.6314 6.66423 23.1858C7.90737 23.7401 9.29448 23.8853 10.6255 23.6004C11.2246 24.2758 11.9609 24.8156 12.7852 25.1839C13.6095 25.5521 14.5029 25.7402 15.4057 25.7357C16.7655 25.7388 18.0911 25.3099 19.1913 24.5109C20.2915 23.7119 21.1095 22.584 21.5272 21.29C22.4123 21.1083 23.2484 20.7398 23.9795 20.209C24.7107 19.6782 25.3201 18.9974 25.767 18.2121C26.4503 17.0361 26.7422 15.6732 26.6005 14.3205C26.4587 12.9677 25.8907 11.695 24.9784 10.6862ZM15.4057 24.0744C14.289 24.0754 13.2076 23.6833 12.3511 22.9668C12.3887 22.9458 12.4618 22.9092 12.5039 22.8816L17.5765 19.9532C17.7038 19.8809 17.8095 19.7759 17.8827 19.6492C17.9559 19.5225 17.994 19.3785 17.993 19.2321V12.0795L20.1361 13.3167C20.1477 13.3221 20.1577 13.3305 20.165 13.341C20.1724 13.3515 20.1769 13.3637 20.1782 13.3765V19.2964C20.1782 20.5626 19.6756 21.7771 18.7807 22.673C17.8858 23.5689 16.672 24.0729 15.4057 24.0744ZM5.1508 19.6951C4.59161 18.7287 4.38972 17.5966 4.58041 16.4965C4.61807 16.5197 4.68452 16.5596 4.73104 16.5862L9.80478 19.5157C9.93109 19.5897 10.0748 19.6287 10.2212 19.6287C10.3676 19.6287 10.5113 19.5897 10.6377 19.5157L16.8278 15.936V18.4103C16.829 18.423 16.8268 18.4358 16.8216 18.4475C16.8164 18.4591 16.8082 18.4692 16.7979 18.4768L11.6699 21.4362C10.5735 22.0675 9.27135 22.2382 8.04923 21.9107C6.82711 21.5833 5.78476 20.7845 5.1508 19.6896V19.6951ZM3.82173 8.61949C4.3783 7.65164 5.25778 6.91058 6.30599 6.5262V12.5558C6.30524 12.7021 6.34342 12.846 6.4166 12.9727C6.48977 13.0994 6.59533 13.2043 6.72243 13.2768L12.9137 16.852L10.7628 18.0936C10.7523 18.1006 10.7403 18.1049 10.7277 18.1061C10.7151 18.1073 10.7024 18.1052 10.6908 18.1002L5.56392 15.1397C4.46846 14.506 3.66925 13.4634 3.34178 12.2409C3.0143 11.0184 3.18533 9.71598 3.8173 8.61949H3.82173ZM21.432 12.7175L15.2407 9.14226L17.3816 7.90401C17.3921 7.89704 17.4042 7.89279 17.4168 7.89163C17.4293 7.89047 17.442 7.89244 17.4536 7.89736L22.5805 10.8579C23.3658 11.3116 24.0055 11.9796 24.4249 12.7838C24.8443 13.5879 25.0259 14.4949 24.9485 15.3985C24.8711 16.3021 24.5379 17.1649 23.9879 17.8861C23.4379 18.6072 22.6938 19.1567 21.8429 19.4703V13.4418C21.8445 13.2951 21.807 13.1507 21.7342 13.0233C21.6614 12.896 21.5559 12.7904 21.4286 12.7175H21.432ZM23.5662 9.50554C23.5286 9.48228 23.4621 9.44241 23.4156 9.41583L18.3419 6.48633C18.2155 6.41235 18.0718 6.37335 17.9254 6.37335C17.779 6.37335 17.6353 6.41235 17.509 6.48633L11.3177 10.0604V7.58724C11.3173 7.57451 11.3199 7.56185 11.3252 7.5503C11.3306 7.53875 11.3387 7.52864 11.3487 7.52079L16.4756 4.56139C17.2612 4.10856 18.1595 3.88884 19.0653 3.92792C19.9712 3.96701 20.8472 4.26329 21.5909 4.78209C22.3345 5.3009 22.915 6.02076 23.2645 6.85745C23.6139 7.69415 23.7178 8.61305 23.564 9.50665L23.5662 9.50554ZM10.1492 13.9181L8.00499 12.6809C7.99397 12.6748 7.98453 12.6662 7.97742 12.6559C7.97031 12.6455 7.96571 12.6336 7.96401 12.6211V6.70119C7.96332 5.79386 8.22129 4.90514 8.70768 4.13919C9.19407 3.37325 9.88872 2.76183 10.7102 2.3766C11.5317 1.99137 12.446 1.8483 13.3459 1.96415C14.2458 2.08001 15.094 2.44999 15.7911 3.03074C15.7535 3.05178 15.6859 3.08833 15.6383 3.11602L10.5657 6.04441C10.4386 6.11688 10.333 6.22184 10.2598 6.34854C10.1867 6.47524 10.1485 6.61912 10.1492 6.76543V13.9181ZM11.3133 11.4072L14.0711 9.81455L16.8278 11.4072V14.5904L14.07 16.183L11.3122 14.5904L11.3133 11.4072Z" fill="#9CAEB8"/>
</g>
<defs>
<clipPath id="clip0_31568_175768">
<rect width="105" height="25.494" fill="white" transform="translate(0.5 0.250977)"/>
</clipPath>
</defs>
</svg>
